# Blender 5.0.1
# www.blender.org
mtllib minicargadorModel_cuchara.mtl
o excavadora
v -11.776104 -10.003763 3.016607
v -11.776104 -4.822149 3.016607
v -11.776104 -10.003763 -9.314316
v -11.776104 -4.822149 -9.314316
v -10.425949 -7.962117 3.016607
v -10.425949 -6.863798 3.016607
v -10.425949 -7.962117 -9.314316
v -10.425949 -6.863798 -9.314316
v -9.672501 -6.863798 -9.314316
v -9.672501 -7.962117 -9.314316
v -9.672501 -7.962117 3.016607
v -9.672501 -6.863798 3.016607
v -11.776104 -9.777067 3.016607
v -11.776104 -9.777067 -9.314316
v -10.425949 -7.914065 -9.314316
v -10.425949 -7.914065 3.016607
v -9.672501 -7.914065 -9.314316
v -9.672501 -7.914065 3.016607
v -14.183184 -10.003763 -9.314316
v -14.183184 -10.003763 3.016607
v -14.183184 -9.777067 -9.314316
v -14.183184 -9.777067 3.016607
v -11.776104 -10.003763 -9.011819
v -11.776104 -4.822149 -9.011819
v -10.425949 -7.962117 -9.011819
v -10.425949 -6.863798 -9.011819
v -9.672501 -7.962117 -9.011819
v -9.672501 -6.863798 -9.011819
v -9.672501 -7.914065 -9.011819
v -11.776104 -9.777067 -9.011819
v -14.183184 -10.003763 -9.011819
v -14.183184 -9.777067 -9.011819
v -11.776104 -4.822149 -9.011819
v -11.776104 -4.822149 -9.314316
v -11.776104 -9.777067 -9.314316
v -11.776104 -9.777067 -9.011819
v -12.531687 -4.807391 -9.011819
v -12.531687 -4.807391 -9.314316
v -13.936140 -9.791825 -9.314316
v -13.936140 -9.791825 -9.011819
v -11.776104 -10.003763 2.812964
v -10.425949 -6.863798 2.812964
v -9.672501 -6.863798 2.812964
v -9.672501 -7.914065 2.812964
v -14.183184 -10.003763 2.812964
v -11.776104 -4.822149 2.812964
v -10.425949 -7.962117 2.812964
v -9.672501 -7.962117 2.812964
v -11.776104 -9.777067 2.812964
v -14.183184 -9.777067 2.812964
v -14.109078 -9.856680 3.016607
v -12.584388 -4.742536 3.016607
v -12.584388 -4.742536 2.812964
v -14.109078 -9.856680 2.812964
v -10.425949 -8.580765 2.812964
v -10.425949 -8.580765 -9.011819
v -9.672501 -8.580765 2.812964
v -9.672501 -8.580765 -9.011819
vn -0.0000 1.0000 -0.0000
vn -0.0000 -0.0000 -1.0000
vn -0.0000 -0.0000 1.0000
vn 0.8341 -0.5516 -0.0000
vn 0.8341 0.5516 -0.0000
vn 1.0000 -0.0000 -0.0000
vn -0.0000 -1.0000 -0.0000
vn -1.0000 -0.0000 -0.0000
vn -0.9625 0.2712 -0.0000
vn 0.0068 -1.0000 -0.0000
vn 0.0195 0.9998 -0.0000
vn 0.0980 0.9952 -0.0000
vn -0.9583 0.2857 -0.0000
vn 0.0341 -0.9994 -0.0000
vt 0.625000 0.250000
vt 0.385938 0.250000
vt 0.625000 0.500000
vt 0.385938 0.500000
vt 0.625000 0.750000
vt 0.625000 0.745871
vt 0.385938 1.000000
vt 0.385938 0.750000
vt 0.375000 0.745871
vt 0.125000 0.750000
vt 0.125000 0.745871
vt 0.875000 0.745871
vt 0.385938 0.750000
vt 0.385938 0.745871
vt 0.375000 0.750000
vt 0.375000 0.500000
vt 0.375000 0.506133
vt 0.375000 0.506133
vt 0.375000 0.745871
vt 0.375000 1.000000
vt 0.375000 0.250000
vt 0.385938 0.243867
vt 0.375000 0.243867
vt 0.125000 0.745871
vt 0.385938 0.004129
vt 0.125000 0.506133
vt 0.125000 0.500000
vt 0.375000 0.004129
vt 0.385938 0.506133
vt 0.875000 0.500000
vt 0.625000 0.506133
vt 0.625000 0.004129
vt 0.625000 0.243867
vt 0.875000 0.506133
vt 0.875000 0.750000
vt 0.385938 0.000000
vt 0.375000 0.000000
vt 0.625000 0.506133
vt 0.625000 0.000000
vt 0.625000 1.000000
s 0
usemtl Material.003
f 4/1/1 35/2/1 34/1/1
f 14/2/2 8/3/2 15/4/2
f 6/5/1 43/6/1 42/6/1
f 6/5/3 13/7/3 16/8/3
f 47/9/4 1/10/4 41/11/4
f 46/12/5 6/5/5 42/6/5
f 43/6/6 18/13/6 44/14/6
f 8/3/2 17/4/2 15/4/2
f 5/15/3 18/13/3 16/8/3
f 7/16/7 27/17/7 25/18/7
f 16/8/3 12/5/3 6/5/3
f 15/4/2 10/16/2 7/16/2
f 44/14/6 11/15/6 48/19/6
f 5/15/3 13/7/3 1/20/3
f 14/2/2 7/16/2 3/21/2
f 3/21/2 21/2/2 14/2/2
f 32/22/8 19/21/8 31/23/8
f 1/10/7 45/24/7 41/11/7
f 13/7/3 20/20/3 1/20/3
f 14/2/1 32/22/1 30/22/1
f 30/22/1 50/25/1 49/25/1
f 23/26/7 19/27/7 3/27/7
f 50/25/8 31/23/8 45/28/8
f 17/4/6 27/17/6 10/16/6
f 27/17/2 56/18/2 25/18/2
f 9/3/6 29/29/6 17/4/6
f 4/30/5 26/31/5 8/3/5
f 7/16/4 23/26/4 3/27/4
f 26/31/1 9/3/1 8/3/1
f 46/32/8 30/22/8 49/25/8
f 36/22/3 37/33/3 40/22/3
f 30/22/1 33/33/1 36/22/1
f 24/34/1 34/30/1 33/34/1
f 14/2/1 36/22/1 35/2/1
f 37/33/9 39/2/9 40/22/9
f 35/2/2 38/1/2 34/1/2
f 36/22/10 39/2/10 35/2/10
f 34/30/11 37/34/11 33/34/11
f 46/12/12 52/35/12 2/35/12
f 47/9/7 11/15/7 5/15/7
f 22/36/8 45/28/8 20/37/8
f 49/25/1 22/36/1 13/36/1
f 41/11/7 31/26/7 23/26/7
f 29/29/6 48/19/6 27/17/6
f 28/38/6 44/14/6 29/29/6
f 24/34/5 42/6/5 26/31/5
f 25/18/4 41/11/4 23/26/4
f 42/6/1 28/38/1 26/31/1
f 52/39/13 54/25/13 51/36/13
f 49/25/2 53/32/2 46/32/2
f 13/36/14 54/25/14 49/25/14
f 13/7/3 52/40/3 51/7/3
f 56/18/7 57/19/7 55/9/7
f 47/9/3 57/19/3 48/19/3
f 48/19/6 58/17/6 27/17/6
f 25/18/8 55/9/8 47/9/8
f 4/1/1 14/2/1 35/2/1
f 14/2/2 4/1/2 8/3/2
f 6/5/1 12/5/1 43/6/1
f 6/5/3 2/40/3 13/7/3
f 47/9/4 5/15/4 1/10/4
f 46/12/5 2/35/5 6/5/5
f 43/6/6 12/5/6 18/13/6
f 8/3/2 9/3/2 17/4/2
f 5/15/3 11/15/3 18/13/3
f 7/16/7 10/16/7 27/17/7
f 16/8/3 18/13/3 12/5/3
f 15/4/2 17/4/2 10/16/2
f 44/14/6 18/13/6 11/15/6
f 5/15/3 16/8/3 13/7/3
f 14/2/2 15/4/2 7/16/2
f 3/21/2 19/21/2 21/2/2
f 32/22/8 21/2/8 19/21/8
f 1/10/7 20/10/7 45/24/7
f 13/7/3 22/7/3 20/20/3
f 14/2/1 21/2/1 32/22/1
f 30/22/1 32/22/1 50/25/1
f 23/26/7 31/26/7 19/27/7
f 50/25/8 32/22/8 31/23/8
f 17/4/6 29/29/6 27/17/6
f 27/17/2 58/17/2 56/18/2
f 9/3/6 28/38/6 29/29/6
f 4/30/5 24/34/5 26/31/5
f 7/16/4 25/18/4 23/26/4
f 26/31/1 28/38/1 9/3/1
f 46/32/8 24/33/8 30/22/8
f 36/22/3 33/33/3 37/33/3
f 30/22/1 24/33/1 33/33/1
f 24/34/1 4/30/1 34/30/1
f 14/2/1 30/22/1 36/22/1
f 37/33/9 38/1/9 39/2/9
f 35/2/2 39/2/2 38/1/2
f 36/22/10 40/22/10 39/2/10
f 34/30/11 38/30/11 37/34/11
f 46/12/12 53/12/12 52/35/12
f 47/9/7 48/19/7 11/15/7
f 22/36/8 50/25/8 45/28/8
f 49/25/1 50/25/1 22/36/1
f 41/11/7 45/24/7 31/26/7
f 29/29/6 44/14/6 48/19/6
f 28/38/6 43/6/6 44/14/6
f 24/34/5 46/12/5 42/6/5
f 25/18/4 47/9/4 41/11/4
f 42/6/1 43/6/1 28/38/1
f 52/39/13 53/32/13 54/25/13
f 49/25/2 54/25/2 53/32/2
f 13/36/14 51/36/14 54/25/14
f 13/7/3 2/40/3 52/40/3
f 56/18/7 58/17/7 57/19/7
f 47/9/3 55/9/3 57/19/3
f 48/19/6 57/19/6 58/17/6
f 25/18/8 56/18/8 55/9/8
