# Blender 5.0.1
# www.blender.org
mtllib minicargadorModel_brazo_derecho.mtl
o mano_izquierda
v -10.041938 -8.855827 -9.456271
v -10.041938 -6.855827 -9.456271
v -10.041938 -8.855827 -10.659456
v -10.041938 -6.855827 -10.659456
v -7.578845 -8.742137 -9.456271
v -8.505031 -6.969518 -9.456271
v -7.578845 -8.742137 -10.659456
v -8.505031 -6.969518 -10.659456
v -3.263021 0.652841 -10.659456
v -2.127188 -0.993332 -10.659456
v -2.127188 -0.993332 -9.456271
v -3.263021 0.652841 -9.456271
v 8.770524 3.726937 -10.659456
v 9.255597 1.786653 -10.659456
v 9.255597 1.786653 -9.456271
v 8.770524 3.726937 -9.456271
vn -1.0000 -0.0000 -0.0000
vn -0.0000 -0.0000 -1.0000
vn -0.8240 0.5666 -0.0000
vn -0.0000 -0.0000 1.0000
vn 0.0461 -0.9989 -0.0000
vn 0.0738 0.9973 -0.0000
vn 0.8179 -0.5754 -0.0000
vn 0.9701 0.2425 -0.0000
vn 0.2373 -0.9714 -0.0000
vn -0.2475 0.9689 -0.0000
vt 0.625000 0.000000
vt 0.375000 0.250000
vt 0.375000 0.000000
vt 0.625000 0.500000
vt 0.375000 0.500000
vt 0.625000 0.750000
vt 0.375000 1.000000
vt 0.375000 0.750000
vt 0.125000 0.750000
vt 0.125000 0.500000
vt 0.875000 0.500000
vt 0.625000 0.250000
vt 0.625000 1.000000
vt 0.875000 0.750000
s 0
usemtl Material.007
f 2/1/1 3/2/1 1/3/1
f 3/2/2 8/4/2 7/5/2
f 6/6/3 9/4/3 8/4/3
f 6/6/4 1/7/4 5/8/4
f 7/5/5 1/9/5 3/10/5
f 4/11/6 6/6/6 8/4/6
f 11/8/4 16/6/4 12/6/4
f 8/4/2 10/5/2 7/5/2
f 6/6/4 11/8/4 12/6/4
f 7/5/7 11/8/7 5/8/7
f 13/4/8 15/8/8 14/5/8
f 10/5/9 15/8/9 11/8/9
f 12/6/10 13/4/10 9/4/10
f 10/5/2 13/4/2 14/5/2
f 2/1/1 4/12/1 3/2/1
f 3/2/2 4/12/2 8/4/2
f 6/6/3 12/6/3 9/4/3
f 6/6/4 2/13/4 1/7/4
f 7/5/5 5/8/5 1/9/5
f 4/11/6 2/14/6 6/6/6
f 11/8/4 15/8/4 16/6/4
f 8/4/2 9/4/2 10/5/2
f 6/6/4 5/8/4 11/8/4
f 7/5/7 10/5/7 11/8/7
f 13/4/8 16/6/8 15/8/8
f 10/5/9 14/5/9 15/8/9
f 12/6/10 16/6/10 13/4/10
f 10/5/2 9/4/2 13/4/2
